Run_20001
nRows=4
nColumns=164

# SIMM Motion File Header:
name Run_20001
datacolumns 164
datarows 4
otherdata 1
range 3.17500000 3.20000000
endheader
time	pelvis_tilt	pelvis_list	pelvis_rotation	pelvis_tx	pelvis_ty	pelvis_tz	hip_flexion_r	hip_adduction_r	hip_rotation_r	knee_angle_r	ankle_angle_r	hip_flexion_l	hip_adduction_l	hip_rotation_l	knee_angle_l	ankle_angle_l	lumbar_extension	lumbar_bending	lumbar_rotation	arm_flex_r	arm_add_r	arm_rot_r	elbow_flex_r	pro_sup_r	arm_flex_l	arm_add_l	arm_rot_l	elbow_flex_l	pro_sup_l	subtalar_angle_r	mtp_angle_r	subtalar_angle_l	mtp_angle_l	wrist_flex_r	wrist_dev_r	wrist_flex_l	wrist_dev_l	LASI_tx	LASI_ty	LASI_tz	RASI_tx	RASI_ty	RASI_tz	LPSI_tx	LPSI_ty	LPSI_tz	RPSI_tx	RPSI_ty	RPSI_tz	RTH1_tx	RTH1_ty	RTH1_tz	RTH2_tx	RTH2_ty	RTH2_tz	RTH3_tx	RTH3_ty	RTH3_tz	LTH1_tx	LTH1_ty	LTH1_tz	LTH2_tx	LTH2_ty	LTH2_tz	LTH3_tx	LTH3_ty	LTH3_tz	RTB1_tx	RTB1_ty	RTB1_tz	RTB2_tx	RTB2_ty	RTB2_tz	RTB3_tx	RTB3_ty	RTB3_tz	LTB1_tx	LTB1_ty	LTB1_tz	LTB2_tx	LTB2_ty	LTB2_tz	LTB3_tx	LTB3_ty	LTB3_tz	RCAL_tx	RCAL_ty	RCAL_tz	RTOE_tx	RTOE_ty	RTOE_tz	RMT5_tx	RMT5_ty	RMT5_tz	LCAL_tx	LCAL_ty	LCAL_tz	LTOE_tx	LTOE_ty	LTOE_tz	LMT5_tx	LMT5_ty	LMT5_tz	LACR_tx	LACR_ty	LACR_tz	RACR_tx	RACR_ty	RACR_tz	CLAV_tx	CLAV_ty	CLAV_tz	C7_tx	C7_ty	C7_tz	RUA1_tx	RUA1_ty	RUA1_tz	RUA2_tx	RUA2_ty	RUA2_tz	RUA3_tx	RUA3_ty	RUA3_tz	RLEL_tx	RLEL_ty	RLEL_tz	RMEL_tx	RMEL_ty	RMEL_tz	LUA1_tx	LUA1_ty	LUA1_tz	LUA2_tx	LUA2_ty	LUA2_tz	LUA3_tx	LUA3_ty	LUA3_tz	LLEL_tx	LLEL_ty	LLEL_tz	LMEL_tx	LMEL_ty	LMEL_tz	RFAsuperior_tx	RFAsuperior_ty	RFAsuperior_tz	RFAradius_tx	RFAradius_ty	RFAradius_tz	RFAulna_tx	RFAulna_ty	RFAulna_tz	LFAsuperior_tx	LFAsuperior_ty	LFAsuperior_tz	LFAradius_tx	LFAradius_ty	LFAradius_tz	LFAulna_tx	LFAulna_ty	LFAulna_tz
      3.17500000	      1.79822894	     -0.83725168	     -4.60936697	      0.44550731	      0.99228312	     -0.32169769	     -6.33978862	      3.04542844	      6.17867629	    -18.90840760	     11.83391846	     30.52639504	      1.62012072	      0.14995090	    -74.76809405	      7.54257101	    -15.04688161	      1.53383711	      9.34817431	     -3.62923319	    -32.32189841	      8.57341640	    113.26258772	     71.99709618	    -29.57505797	    -20.64478389	      0.94390971	    122.30003421	     97.66792175	      0.00000000	      0.00000000	      0.00000000	      0.00000000	      0.00000000	      0.00000000	      0.00000000	      0.00000000	      0.46281399	      1.01588682	     -0.44375408	      0.44522782	      1.01508749	     -0.19545067	      0.28729617	      1.03282941	     -0.38027165	      0.28055499	      1.03829249	     -0.29211406	      0.39067127	      0.83306420	     -0.16372905	      0.43573485	      0.70942795	     -0.19625067	      0.33548791	      0.59354038	     -0.19632092	      0.46877175	      0.87623278	     -0.48553144	      0.56716290	      0.80054387	     -0.46094321	      0.55968455	      0.65110945	     -0.46114244	      0.33699691	      0.37714617	     -0.26362436	      0.28050775	      0.32731379	     -0.20967100	      0.25250969	      0.21959367	     -0.27982612	      0.56462251	      0.43522889	     -0.38865335	      0.46766339	      0.38304879	     -0.44853856	      0.41864385	      0.31142140	     -0.38134851	      0.09181485	      0.12421057	     -0.27946932	      0.30618936	      0.07097160	     -0.29201917	      0.27022853	      0.06225310	     -0.20095093	      0.25084135	      0.28653692	     -0.39550897	      0.42467477	      0.15580574	     -0.37638880	      0.39218762	      0.14892963	     -0.46503309	      0.41156721	      1.46298153	     -0.50507216	      0.44870667	      1.44717023	     -0.12424867	      0.53082003	      1.42471193	     -0.29939794	      0.39586388	      1.51674581	     -0.31282117	      0.43919108	      1.33726573	     -0.06178021	      0.46074539	      1.27021161	     -0.06726499	      0.37327280	      1.25245860	     -0.00950758	      0.41467353	      1.17624442	      0.02269136	      0.35495614	      1.14183914	     -0.03546354	      0.35946090	      1.40345138	     -0.55440084	      0.28144438	      1.36248844	     -0.52911248	      0.31460845	      1.32424620	     -0.59146979	      0.25620954	      1.23341366	     -0.62693726	      0.20933441	      1.20649840	     -0.55178999	      0.48981455	      1.17185122	     -0.01562364	      0.60698761	      1.16410688	     -0.13181573	      0.59618159	      1.09889231	     -0.11379209	      0.32388551	      1.21424490	     -0.61293184	      0.46280116	      1.17413198	     -0.51280616	      0.44882168	      1.11589882	     -0.54162223
      3.18333300	      1.66174880	     -0.30259878	     -4.27308938	      0.44706722	      0.99768994	     -0.32245716	     -8.51879972	      2.24985910	      5.82211507	    -16.26482540	      8.83091046	     30.20433906	      2.41789979	      0.48780599	    -70.84203740	      7.65839510	    -14.60100833	      0.90849458	      9.45622477	     -3.86596190	    -32.11873473	      9.46484150	    114.04463706	     72.16994236	    -30.10304476	    -21.19679478	      0.92683023	    122.88258364	     97.51272113	      0.00000000	      0.00000000	      0.00000000	      0.00000000	      0.00000000	      0.00000000	      0.00000000	      0.00000000	      0.46319979	      1.02207342	     -0.44440096	      0.44803413	      1.01936024	     -0.19648513	      0.28853800	      1.03893511	     -0.37975348	      0.28219927	      1.04399925	     -0.29112748	      0.38819493	      0.83772943	     -0.16484631	      0.42839483	      0.71237330	     -0.19893259	      0.32372471	      0.60058501	     -0.19727701	      0.47099289	      0.88315311	     -0.48547642	      0.56830585	      0.80685332	     -0.46015395	      0.56011743	      0.65705395	     -0.46099927	      0.32188576	      0.38396075	     -0.26329194	      0.26562115	      0.33431608	     -0.20881343	      0.23867396	      0.22562487	     -0.27888528	      0.57026651	      0.43728818	     -0.38783721	      0.47626552	      0.37942862	     -0.44728628	      0.43181177	      0.30495778	     -0.37993980	      0.07924463	      0.13155877	     -0.27884859	      0.29030157	      0.07007280	     -0.29303550	      0.25392233	      0.06251762	     -0.20148499	      0.26592515	      0.27010634	     -0.39232655	      0.44718054	      0.15025069	     -0.37601746	      0.41464801	      0.14245687	     -0.46500076	      0.40945370	      1.46898526	     -0.50548173	      0.45099325	      1.45355959	     -0.12560335	      0.53062981	      1.43137955	     -0.30163595	      0.39533336	      1.52226155	     -0.31329018	      0.44259654	      1.34381539	     -0.06297374	      0.46366522	      1.27650256	     -0.06968372	      0.37762236	      1.25907007	     -0.00941038	      0.41881094	      1.18238998	      0.02093979	      0.35710344	      1.14875522	     -0.03608076	      0.35724093	      1.41033173	     -0.55477906	      0.27931130	      1.36986658	     -0.52965831	      0.31219854	      1.33127975	     -0.59219411	      0.25281175	      1.24048908	     -0.62717544	      0.20626951	      1.21396626	     -0.55215031	      0.49277597	      1.17853561	     -0.01924154	      0.60670424	      1.17237759	     -0.13868077	      0.59672692	      1.10710616	     -0.12099657	      0.32118542	      1.22205244	     -0.61503442	      0.46017232	      1.18205968	     -0.51451910	      0.44638183	      1.12380876	     -0.54307624
      3.19166700	      1.50457771	      0.19963244	     -3.86566719	      0.44883807	      1.00285581	     -0.32340756	    -10.62679950	      1.50441220	      5.14697204	    -13.68456300	      5.47793357	     29.71438272	      3.20072498	      0.91096735	    -66.64944682	      7.70393895	    -14.11734201	      0.34213857	      9.53536596	     -4.27659453	    -31.97967941	     10.28024966	    114.81623599	     72.45016178	    -30.52836056	    -21.79091111	      0.94449908	    123.37894107	     97.34760904	      0.00000000	      0.00000000	      0.00000000	      0.00000000	      0.00000000	      0.00000000	      0.00000000	      0.00000000	      0.46365029	      1.02811234	     -0.44515013	      0.45123315	      1.02362160	     -0.19773974	      0.28984708	      1.04488831	     -0.37923825	      0.28455244	      1.04951105	     -0.29037114	      0.38586882	      0.84241344	     -0.16587490	      0.42073185	      0.71558321	     -0.20135959	      0.31242856	      0.60797557	     -0.19789134	      0.47285989	      0.88968866	     -0.48567027	      0.56913899	      0.81260051	     -0.45963661	      0.55985932	      0.66214565	     -0.46091461	      0.30773487	      0.39130069	     -0.26218985	      0.25138796	      0.34190835	     -0.20733506	      0.22548286	      0.23202838	     -0.27792151	      0.57519022	      0.43882336	     -0.38717821	      0.48455762	      0.37533911	     -0.44625115	      0.44500080	      0.29831213	     -0.37853765	      0.06753330	      0.13966874	     -0.27835183	      0.27452256	      0.06886079	     -0.29398817	      0.23783890	      0.06289982	     -0.20193788	      0.28149206	      0.25342856	     -0.38942404	      0.46984384	      0.14496887	     -0.37554886	      0.43729985	      0.13595757	     -0.46448860	      0.40742317	      1.47468352	     -0.50590844	      0.45332593	      1.45973750	     -0.12697292	      0.53038003	      1.43771534	     -0.30389741	      0.39485638	      1.52760159	     -0.31379948	      0.44588738	      1.35023040	     -0.06410323	      0.46656060	      1.28280320	     -0.07139453	      0.38163355	      1.26564276	     -0.00929550	      0.42259850	      1.18846822	      0.01946092	      0.35882754	      1.15567864	     -0.03642624	      0.35516298	      1.41684846	     -0.55519691	      0.27728258	      1.37671468	     -0.53039879	      0.31005722	      1.33787753	     -0.59315331	      0.24986723	      1.24713224	     -0.62767743	      0.20354830	      1.22084319	     -0.55273795	      0.49546250	      1.18501832	     -0.02253355	      0.60594427	      1.18011594	     -0.14522572	      0.59669346	      1.11484793	     -0.12779083	      0.31882192	      1.22939872	     -0.61708518	      0.45796354	      1.18959113	     -0.51640623	      0.44439286	      1.13136580	     -0.54480699
      3.20000000	      1.33533012	      0.61893736	     -3.43646737	      0.45068454	      1.00774606	     -0.32445878	    -12.61743560	      0.85983713	      4.16365439	    -11.25561384	      1.93359993	     29.06326643	      3.88920846	      1.39729665	    -62.23106286	      7.63394905	    -13.62437985	     -0.12349588	      9.63242042	     -4.81822222	    -31.91321778	     11.04381602	    115.56851040	     72.74239275	    -30.83141498	    -22.40010101	      1.00962229	    123.78053042	     97.16821282	      0.00000000	      0.00000000	      0.00000000	      0.00000000	      0.00000000	      0.00000000	      0.00000000	      0.00000000	      0.46416195	      1.03388514	     -0.44597014	      0.45445337	      1.02785205	     -0.19920693	      0.29116675	      1.05059020	     -0.37879805	      0.28741626	      1.05478653	     -0.28990905	      0.38378614	      0.84696047	     -0.16665287	      0.41260042	      0.71958996	     -0.20278430	      0.30179311	      0.61550664	     -0.19809380	      0.47433066	      0.89579162	     -0.48618602	      0.56964084	      0.81769024	     -0.45945893	      0.55883787	      0.66627953	     -0.46081106	      0.29468641	      0.39897509	     -0.26039259	      0.23787566	      0.34991833	     -0.20535451	      0.21326731	      0.23880427	     -0.27648161	      0.57941593	      0.43984409	     -0.38673617	      0.49252603	      0.37085890	     -0.44550199	      0.45817440	      0.29166238	     -0.37707010	      0.05662875	      0.14848860	     -0.27782818	      0.25911949	      0.06783830	     -0.29430931	      0.22208921	      0.06343853	     -0.20220115	      0.29750859	      0.23673799	     -0.38695280	      0.49243936	      0.14013867	     -0.37476320	      0.45998859	      0.12948460	     -0.46336474	      0.40548952	      1.48000836	     -0.50637286	      0.45560829	      1.46561897	     -0.12841843	      0.53006959	      1.44361966	     -0.30615991	      0.39443760	      1.53271730	     -0.31435469	      0.44900026	      1.35640344	     -0.06519642	      0.46947422	      1.28907565	     -0.07229389	      0.38532367	      1.27205949	     -0.00912083	      0.42599472	      1.19434561	      0.01817874	      0.36017207	      1.16246935	     -0.03651895	      0.35320638	      1.42293738	     -0.55565221	      0.27538082	      1.38295838	     -0.53134896	      0.30814901	      1.34394080	     -0.59424206	      0.24745447	      1.25329839	     -0.62855851	      0.20117202	      1.22702863	     -0.55353237	      0.49781759	      1.19118255	     -0.02555245	      0.60473267	      1.18724534	     -0.15140415	      0.59609893	      1.12198698	     -0.13424918	      0.31668938	      1.23611596	     -0.61889678	      0.45617579	      1.19664485	     -0.51841517	      0.44286191	      1.13844701	     -0.54676922
